<?xml version="1.0" standalone="no"?>
<!DOCTYPE svg PUBLIC "-//W3C//DTD SVG 20010904//EN"
 "http://www.w3.org/TR/2001/REC-SVG-20010904/DTD/svg10.dtd">
<svg version="1.0" xmlns="http://www.w3.org/2000/svg"
 width="300.000000pt" height="300.000000pt" viewBox="0 0 300.000000 300.000000"
 preserveAspectRatio="xMidYMid meet">
<metadata>
Created by potrace 1.11, written by Peter Selinger 2001-2013
</metadata>
<g transform="translate(0.000000,300.000000) scale(0.100000,-0.100000)"
fill="#000000" stroke="none">
<path d="M0 1500 l0 -1500 1500 0 1500 0 0 1500 0 1500 -1500 0 -1500 0 0
-1500z m1608 770 c339 -43 653 -260 800 -555 26 -53 73 -185 66 -185 -4 0 -2
-6 4 -12 6 -7 13 -33 17 -58 13 -84 13 -107 -1 -107 -7 0 -11 3 -9 7 2 3 0 12
-6 20 -7 12 -9 9 -9 -10 0 -20 -2 -22 -10 -10 -9 13 -10 13 -10 0 0 -13 -1
-13 -10 0 -6 10 -13 11 -17 5 -5 -6 -26 -10 -48 -10 -29 0 -43 5 -52 20 l-12
20 -1 -20 c0 -15 -2 -17 -9 -6 -6 10 -10 10 -16 1 -4 -6 -13 -9 -21 -6 -8 3
-14 0 -15 -7 0 -7 -4 -3 -9 8 l-9 20 -1 -20 -1 -20 -9 20 -9 20 -1 -20 -1 -20
-9 20 c-7 17 -9 16 -10 -10 -2 -22 -4 -25 -8 -10 l-5 20 -8 -20 -8 -20 -1 20
-1 20 -9 -20 c-7 -16 -9 -17 -9 -3 -1 12 -8 15 -30 12 -22 -4 -30 -1 -34 13
-3 11 -5 7 -7 -12 -1 -26 -3 -27 -10 -10 -8 19 -9 19 -9 1 -1 -17 -3 -17 -21
4 l-20 23 0 -21 c0 -13 -6 -22 -15 -22 -8 0 -15 5 -15 11 0 5 5 7 10 4 6 -3
10 1 10 9 0 10 -6 13 -15 10 -8 -4 -15 -11 -15 -18 0 -6 -5 -4 -10 4 -8 13
-10 12 -10 -2 0 -14 -8 -18 -34 -18 -19 0 -36 4 -38 9 -1 5 -19 11 -38 12 -19
2 -38 8 -42 14 -5 6 -8 5 -8 -3 0 -10 -5 -10 -21 -1 -15 8 -19 8 -15 0 9 -14
-92 -15 -114 -1 -8 5 -10 10 -4 10 5 0 19 7 30 15 17 13 11 14 -58 10 -44 -2
-78 0 -78 5 0 6 -9 6 -24 0 -13 -5 -38 -6 -55 -4 -17 3 -39 1 -48 -5 -15 -9
-12 -10 16 -11 43 0 38 -6 -11 -14 -20 -3 -40 -2 -43 4 -3 5 -15 6 -28 3 -19
-4 -44 -8 -79 -12 -5 -1 -9 -13 -9 -28 -2 -25 -2 -24 -9 7 -4 19 -8 27 -9 17
0 -10 -5 -15 -11 -12 -5 3 -10 0 -10 -7 0 -10 -2 -10 -8 -1 -4 7 -19 12 -32
11 -74 -3 -134 3 -120 12 9 6 10 10 3 10 -6 0 -15 -5 -18 -10 -5 -8 -11 -8
-19 -1 -7 6 -15 8 -18 5 -11 -10 -138 -9 -142 1 -3 6 -5 1 -6 -10 l-1 -20 -9
20 c-7 17 -9 17 -9 3 -1 -11 -9 -18 -22 -18 -11 0 -18 4 -15 9 7 11 -40 23
-69 17 -76 -14 -109 -17 -95 -6 11 9 -2 10 -57 5 -55 -5 -78 -3 -93 8 -11 7
-17 17 -14 20 3 3 8 28 10 55 4 51 51 197 87 267 89 175 261 347 444 442 194
101 394 139 601 113z m-1131 -915 c0 -8 -4 -12 -9 -9 -4 3 -8 9 -8 15 0 5 4 9
8 9 5 0 9 -7 9 -15z m891 -17 c-7 -4 -31 -8 -53 -8 -23 0 -35 4 -28 8 7 4 31
8 53 8 25 0 36 -3 28 -8z m502 -8 c0 -5 -5 -10 -11 -10 -5 0 -7 5 -4 10 3 6 8
10 11 10 2 0 4 -4 4 -10z m257 4 c-3 -3 -12 -4 -19 -1 -8 3 -5 6 6 6 11 1 17
-2 13 -5z"/>
<path d="M2371 1384 c0 -11 3 -14 6 -6 3 7 2 16 -1 19 -3 4 -6 -2 -5 -13z"/>
<path d="M545 1380 c-3 -5 -1 -10 4 -10 6 0 11 5 11 10 0 6 -2 10 -4 10 -3 0
-8 -4 -11 -10z"/>
<path d="M1665 1370 c-4 -6 3 -10 14 -10 25 0 27 6 6 13 -8 4 -17 2 -20 -3z"/>
<path d="M1098 1363 c7 -3 16 -2 19 1 4 3 -2 6 -13 5 -11 0 -14 -3 -6 -6z"/>
<path d="M1900 1350 c-13 -8 -12 -10 3 -10 9 0 17 5 17 10 0 12 -1 12 -20 0z"/>
</g>
</svg>
